#!OML:ASF G:\JayActor3\Patient Classification 1\Patient 1\Session 6\male.ASF
:FULLY-SPECIFIED
:DEGREES
2751
root 2.95247 16.3375 -24.1594 160.484 -77.8253 -160.81
lowerback 1.52561 0.204019 4.01283
upperback -2.38168 0.406756 2.01536
thorax -3.29542 0.107787 -0.189371
lowerneck 3.52049 11.1074 8.55727
upperneck 2.17617 15.1798 -6.53302
head 1.34664 7.6536 -3.411
rclavicle -3.93594e-014 -1.98785e-014
rhumerus -56.9504 26.8118 -83.7996
rradius 100.004
rwrist -33.2333
rhand -27.5203 4.07256
rfingers 7.12502
rthumb -0.922644 -25.9052
lclavicle -3.93594e-014 -1.98785e-014
lhumerus -42.2259 -14.4903 88.1094
lradius 36.9388
lwrist 25.2763
lhand -3.91534 9.69961
lfingers 7.12502
lthumb 21.8353 38.4877
rfemur -8.76505 -4.04702 21.7357
rtibia 34.3652
rfoot -32.3758 -19.0703
rtoes 12.6175
lfemur 0.347988 -7.44196 -11.2968
ltibia 19.7299
lfoot -32.0389 30.3655
ltoes 15.038
2752
root 2.95243 16.3374 -24.161 160.444 -77.819 -160.766
lowerback 1.51487 0.203903 4.02251
upperback -2.37649 0.406101 2.02245
thorax -3.284 0.107467 -0.187413
lowerneck 3.51122 11.0991 8.55047
upperneck 2.21189 15.1683 -6.5141
head 1.35668 7.64774 -3.40228
rclavicle -1.36167e-014 -1.19271e-014
rhumerus -56.9384 26.8281 -83.7943
rradius 99.996
rwrist -33.2188
rhand -27.5229 4.05555
rfingers 7.12502
rthumb -0.925104 -25.9222
lclavicle -1.36167e-014 -1.19271e-014
lhumerus -42.2249 -14.4863 88.1253
lradius 36.9353
lwrist 25.2813
lhand -3.91688 9.70075
lfingers 7.12502
lthumb 21.8338 38.489
rfemur -8.76832 -4.05232 21.7529
rtibia 34.3632
rfoot -32.3679 -19.0661
rtoes 12.6228
lfemur 0.343744 -7.46646 -11.2835
ltibia 19.7362
lfoot -32.0751 30.3702
ltoes 15.0735
2753
root 2.95224 16.3371 -24.1625 160.418 -77.8142 -160.741
lowerback 1.50399 0.201265 4.02815
upperback -2.36878 0.401898 2.02936
thorax -3.27003 0.105571 -0.183262
lowerneck 3.50404 11.0892 8.54873
upperneck 2.2523 15.155 -6.49974
head 1.36863 7.64112 -3.39598
rclavicle -1.49585e-014 -1.11319e-014
rhumerus -56.9223 26.8547 -83.7914
rradius 99.9834
rwrist -33.2082
rhand -27.5227 4.04752
rfingers 7.12502
rthumb -0.924915 -25.9302
lclavicle -1.49585e-014 -1.11319e-014
lhumerus -42.2193 -14.4744 88.1376
lradius 36.9261
lwrist 25.2849
lhand -3.91474 9.69352
lfingers 7.12502
lthumb 21.8358 38.4816
rfemur -8.76628 -4.06314 21.7635
rtibia 34.3625
rfoot -32.356 -19.0585
rtoes 12.6316
lfemur 0.345545 -7.48701 -11.2752
ltibia 19.7412
lfoot -32.1086 30.3716
ltoes 15.1078
2754
root 2.95195 16.3368 -24.164 160.405 -77.8101 -160.732
lowerback 1.49797 0.196605 4.03071
upperback -2.36162 0.39523 2.03618
thorax -3.25947 0.102476 -0.177384
lowerneck 3.49368 11.0751 8.54749
upperneck 2.30441 15.1364 -6.48762
head 1.3848 7.6318 -3.39011
rclavicle 1.00138e-014 -2.74323e-014
rhumerus -56.9068 26.8894 -83.7916
rradius 99.9687
rwrist -33.2005
rhand -27.5255 4.04195
rfingers 7.12502
rthumb -0.927601 -25.9358
lclavicle 1.00138e-014 -2.74323e-014
lhumerus -42.2134 -14.4529 88.1472
lradius 36.9117
lwrist 25.2862
lhand -3.91636 9.67472
lfingers 7.12502
lthumb 21.8343 38.4629
rfemur -8.76033 -4.07687 21.7684
rtibia 34.363
rfoot -32.3384 -19.0515
rtoes 12.6147
lfemur 0.352851 -7.49949 -11.2708
ltibia 19.7441
lfoot -32.1272 30.3776
ltoes 15.1212
2755
root 2.95155 16.3364 -24.1654 160.398 -77.8088 -160.733
lowerback 1.49795 0.190159 4.03113
upperback -2.35658 0.38655 2.04311
thorax -3.25457 0.0983239 -0.170126
lowerneck 3.47036 11.0546 8.54229
upperneck 2.37997 15.1087 -6.47192
head 1.40951 7.6177 -3.38115
rclavicle 1.78409e-014 -1.11319e-014
rhumerus -56.8927 26.9292 -83.7921
rradius 99.9497
rwrist -33.1991
rhand -27.5203 4.05119
rfingers 7.12502
rthumb -0.922615 -25.9266
lclavicle 1.78409e-014 -1.11319e-014
lhumerus -42.2104 -14.4265 88.1568
lradius 36.8939
lwrist 25.2848
lhand -3.92228 9.64693
lfingers 7.12502
lthumb 21.8286 38.4358
rfemur -8.75033 -4.0958 21.7687
rtibia 34.3648
rfoot -32.3181 -19.0435
rtoes 12.5942
lfemur 0.365101 -7.50056 -11.2677
ltibia 19.7438
lfoot -32.1309 30.3773
ltoes 15.124
2756
root 2.95097 16.336 -24.1669 160.394 -77.8105 -160.74
lowerback 1.49739 0.18086 4.02733
upperback -2.3508 0.373911 2.05187
thorax -3.24876 0.0923447 -0.158462
lowerneck 3.42872 11.0277 8.53175
upperneck 2.48292 15.0715 -6.45478
head 1.44507 7.59863 -3.3691
rclavicle 2.38293e-014 -3.97569e-015
rhumerus -56.8759 26.9773 -83.7904
rradius 99.9285
rwrist -33.2005
rhand -27.5142 4.06797
rfingers 7.12502
rthumb -0.916717 -25.9098
lclavicle 2.38293e-014 -3.97569e-015
lhumerus -42.2054 -14.3886 88.1648
lradius 36.8726
lwrist 25.2766
lhand -3.93272 9.62009
lfingers 7.12502
lthumb 21.8186 38.4101
rfemur -8.73652 -4.11939 21.7652
rtibia 34.3672
rfoot -32.299 -19.0312
rtoes 12.5633
lfemur 0.381558 -7.49105 -11.2654
ltibia 19.7407
lfoot -32.1199 30.3705
ltoes 15.1149
2757
root 2.95041 16.3357 -24.1684 160.389 -77.8114 -160.745
lowerback 1.49566 0.170592 4.02133
upperback -2.34526 0.359869 2.06363
thorax -3.24259 0.0857341 -0.142412
lowerneck 3.35871 10.9893 8.50869
upperneck 2.62558 15.0172 -6.42685
head 1.49518 7.57054 -3.34898
rclavicle 2.21396e-014 1.11319e-014
rhumerus -56.8556 27.0311 -83.7842
rradius 99.9045
rwrist -33.2049
rhand -27.5097 4.09263
rfingers 7.12502
rthumb -0.912325 -25.8852
lclavicle 2.21396e-014 1.11319e-014
lhumerus -42.1979 -14.345 88.174
lradius 36.8486
lwrist 25.2652
lhand -3.94964 9.59577
lfingers 7.12502
lthumb 21.8023 38.3877
rfemur -8.72307 -4.13706 21.7635
rtibia 34.3692
rfoot -32.2856 -19.0204
rtoes 12.5384
lfemur 0.397543 -7.4748 -11.2607
ltibia 19.736
lfoot -32.0983 30.3625
ltoes 15.097
2758
root 2.94977 16.3355 -24.1699 160.382 -77.8118 -160.747
lowerback 1.48974 0.159238 4.0145
upperback -2.34017 0.344116 2.07772
thorax -3.23458 0.0783116 -0.123421
lowerneck 3.26591 10.9352 8.4776
upperneck 2.80855 14.941 -6.39249
head 1.55955 7.53111 -3.32365
rclavicle 1.28962e-014 1.70955e-014
rhumerus -56.8319 27.0906 -83.775
rradius 99.8765
rwrist -33.209
rhand -27.5053 4.11614
rfingers 7.12502
rthumb -0.908098 -25.8617
lclavicle 1.28962e-014 1.70955e-014
lhumerus -42.1865 -14.2926 88.1823
lradius 36.8174
lwrist 25.2487
lhand -3.96733 9.57527
lfingers 7.12502
lthumb 21.7853 38.3692
rfemur -8.70997 -4.15318 21.7631
rtibia 34.3702
rfoot -32.2773 -19.0078
rtoes 12.5208
lfemur 0.412413 -7.4524 -11.2532
ltibia 19.7311
lfoot -32.0736 30.3453
ltoes 15.0857
2759
root 2.94907 16.3353 -24.1713 160.365 -77.8112 -160.738
lowerback 1.48043 0.146795 4.00925
upperback -2.33687 0.32679 2.09403
thorax -3.22656 0.0700328 -0.102953
lowerneck 3.15151 10.8618 8.43791
upperneck 3.03758 14.838 -6.35012
head 1.63935 7.4779 -3.29273
rclavicle -2.02263e-014 2.5842e-014
rhumerus -56.8078 27.158 -83.7666
rradius 99.8436
rwrist -33.2167
rhand -27.5058 4.13595
rfingers 7.12502
rthumb -0.908571 -25.8419
lclavicle -2.02263e-014 2.5842e-014
lhumerus -42.1795 -14.2364 88.1911
lradius 36.7884
lwrist 25.2303
lhand -3.98277 9.56406
lfingers 7.12502
lthumb 21.7705 38.3597
rfemur -8.69657 -4.16475 21.7663
rtibia 34.3699
rfoot -32.2782 -18.9905
rtoes 12.535
lfemur 0.425524 -7.42421 -11.2412
ltibia 19.727
lfoot -32.0415 30.3236
ltoes 15.0688
2760
root 2.94845 16.3352 -24.1727 160.34 -77.8106 -160.719
lowerback 1.46859 0.133597 4.00594
upperback -2.33666 0.308427 2.11128
thorax -3.22034 0.0611037 -0.0825418
lowerneck 3.00957 10.7649 8.38954
upperneck 3.32456 14.7025 -6.29602
head 1.7389 7.40797 -3.25468
rclavicle -1.46604e-015 -1.70955e-014
rhumerus -56.7838 27.2315 -83.7619
rradius 99.8045
rwrist -33.2268
rhand -27.5114 4.14396
rfingers 7.12502
rthumb -0.914009 -25.8338
lclavicle -1.46604e-015 -1.70955e-014
lhumerus -42.1748 -14.1786 88.199
lradius 36.7587
lwrist 25.2114
lhand -3.99067 9.56295
lfingers 7.12502
lthumb 21.7629 38.3595
rfemur -8.68506 -4.17028 21.7737
rtibia 34.3688
rfoot -32.2835 -18.9779
rtoes 12.5498
lfemur 0.4338 -7.38682 -11.224
ltibia 19.7242
lfoot -31.9954 30.2981
ltoes 15.0384
2761
root 2.94766 16.335 -24.174 160.324 -77.8126 -160.711
lowerback 1.45428 0.118632 4.00187
upperback -2.33706 0.287539 2.12722
thorax -3.2134 0.050929 -0.0629505
lowerneck 2.83202 10.6418 8.3301
upperneck 3.67696 14.5303 -6.23047
head 1.86178 7.31898 -3.20893
rclavicle 4.24902e-015 -7.95139e-015
rhumerus -56.7584 27.3125 -83.7629
rradius 99.7572
rwrist -33.2414
rhand -27.516 4.14327
rfingers 7.12502
rthumb -0.918439 -25.8345
lclavicle 4.24902e-015 -7.95139e-015
lhumerus -42.1718 -14.1195 88.2047
lradius 36.727
lwrist 25.1908
lhand -3.98934 9.55845
lfingers 7.12502
lthumb 21.7642 38.3548
rfemur -8.66981 -4.1803 21.7762
rtibia 34.3666
rfoot -32.2864 -18.9642
rtoes 12.5703
lfemur 0.442911 -7.33829 -11.2085
ltibia 19.7243
lfoot -31.9421 30.2602
ltoes 15.0075
2762
root 2.94677 16.3347 -24.1752 160.31 -77.8156 -160.707
lowerback 1.43852 0.102412 3.99901
upperback -2.33796 0.26492 2.14211
thorax -3.2062 0.0398489 -0.0450514
lowerneck 2.61969 10.4908 8.25961
upperneck 4.09406 14.3192 -6.15613
head 2.00804 7.20979 -3.15692
rclavicle 1.08835e-014 2.42517e-014
rhumerus -56.7313 27.4003 -83.7708
rradius 99.7018
rwrist -33.2555
rhand -27.5268 4.13422
rfingers 7.12502
rthumb -0.928881 -25.8435
lclavicle 1.08835e-014 2.42517e-014
lhumerus -42.1698 -14.0608 88.2079
lradius 36.6949
lwrist 25.1682
lhand -3.98013 9.55623
lfingers 7.12502
lthumb 21.773 38.3516
rfemur -8.65064 -4.19107 21.7769
rtibia 34.3638
rfoot -32.285 -18.9542
rtoes 12.5701
lfemur 0.453099 -7.28012 -11.193
ltibia 19.7267
lfoot -31.8747 30.2221
ltoes 14.956
2763
root 2.94595 16.3344 -24.1763 160.271 -77.8178 -160.682
lowerback 1.42442 0.0856415 4.00204
upperback -2.33993 0.241843 2.15757
thorax -3.20104 0.0283382 -0.02983
lowerneck 2.35693 10.3046 8.17671
upperneck 4.58902 14.059 -6.07555
head 2.18462 7.07487 -3.09895
rclavicle -5.04416e-015 -2.26615e-014
rhumerus -56.7012 27.4912 -83.7825
rradius 99.636
rwrist -33.2735
rhand -27.5283 4.12966
rfingers 7.12502
rthumb -0.930338 -25.8481
lclavicle -5.04416e-015 -2.26615e-014
lhumerus -42.1692 -14.0056 88.2101
lradius 36.6644
lwrist 25.1468
lhand -3.97354 9.54962
lfingers 7.12502
lthumb 21.7794 38.3442
rfemur -8.62869 -4.20065 21.7827
rtibia 34.3603
rfoot -32.2823 -18.9499
rtoes 12.5553
lfemur 0.464185 -7.21202 -11.1712
ltibia 19.7314
lfoot -31.7967 30.1793
ltoes 14.8948
2764
root 2.94517 16.334 -24.1774 160.232 -77.8198 -160.66
lowerback 1.41295 0.0689579 4.00565
upperback -2.34229 0.219061 2.17192
thorax -3.19774 0.0169257 -0.0161015
lowerneck 2.04505 10.0838 8.08451
upperneck 5.1605 13.7505 -5.99258
head 2.39223 6.91453 -3.03764
rclavicle 2.66123e-014 -6.36111e-015
rhumerus -56.6682 27.5822 -83.7981
rradius 99.5591
rwrist -33.2892
rhand -27.5226 4.13284
rfingers 7.12502
rthumb -0.924859 -25.8449
lclavicle 2.66123e-014 -6.36111e-015
lhumerus -42.1698 -13.9524 88.2095
lradius 36.6369
lwrist 25.1245
lhand -3.96292 9.54683
lfingers 7.12502
lthumb 21.7896 38.3403
rfemur -8.60314 -4.20856 21.7881
rtibia 34.3569
rfoot -32.276 -18.9542
rtoes 12.5162
lfemur 0.480046 -7.14686 -11.1512
ltibia 19.7367
lfoot -31.7232 30.1373
ltoes 14.8378
